# xmcd
#
# Track frame offsets: 
#        150
#        16485
#        30531
#        49236
#        72261
#        98139
#        111676
#        126774
#        140523
#        157426
#
# Disc length: 2531 seconds
#
# Revision: 0
# Processed by: cddbd v1.5.2PL0 Copyright (c) Steve Scherf et al.
# Submitted via: ExactAudioCopyFreeDBPlugin 1.0
#
DISCID=9509e10a
DTITLE=Blue Raindrops - "Sir" Oliver Mally's Blues Distillery
DYEAR=1998
DGENRE=Blues
TTITLE0=Bad Reputation
TTITLE1=Stop Telling Me
TTITLE2=I'm So Glad
TTITLE3=Don't Try To Bend Me
TTITLE4=Blue Raindrops
TTITLE5=Hard Headed Man
TTITLE6=Don't Know What To Do
TTITLE7=Slidin' Intro Trouble
TTITLE8=She's Like Thunder And Lightning
TTITLE9=It Ain't None Of Your Business
EXTD=
EXTT0=
EXTT1=
EXTT2=
EXTT3=
EXTT4=
EXTT5=
EXTT6=
EXTT7=
EXTT8=
EXTT9=
PLAYORDER=
